<?xml version="1.0" encoding="UTF-8"?>
<svg xmlns="http://www.w3.org/2000/svg" viewBox="0 0 48 48" width="48" height="48" aria-hidden="true">
  <path fill="#EA4335" d="M24 9.5c3.5 0 6.4 1.2 8.3 2.6l5.9-5.9C35.6 3 30.2 1 24 1 14.9 1 6.9 5.7 2.6 12.9l6.9 5.4C11.9 11.7 17.6 9.5 24 9.5z"/>
  <path fill="#34A853" d="M46.5 24.5c0-1.6-.2-3.1-.5-4.5H24v9.2h12.9c-.6 3.4-2.6 6.3-5.5 8.2l8.6 6.7C44.2 38.7 46.5 31.9 46.5 24.5z"/>
  <path fill="#FBBC05" d="M9.5 28.4C8.6 25.8 8 22.9 8 19.9s.6-5.9 1.6-8.5l-6.8-5.4C.9 12.4 0 17 0 19.9c0 5.3 1.7 10.3 4.6 14.3l5-5.8z"/>
  <path fill="#4285F4" d="M24 46c6.2 0 11.6-2 15.9-5.4l-8.6-6.7c-2.3 1.6-5.3 2.6-8.3 2.6-6.4 0-12.1-2.2-16.9-6.1L2.6 35.1C6.9 42.3 14.9 46 24 46z"/>
</svg>
